<svg viewBox="0 0 251 23" fill="none" xmlns="http://www.w3.org/2000/svg">
<path d="M15.7025 16.21C15.5225 14.38 14.6525 12.91 13.3025 11.98C14.9225 11.14 15.9425 9.7 15.9425 7.6C15.9425 3.76 13.3325 0.999999 8.8625 0.999999H0.0125002V22H4.5425V14.38H8.6225C10.0325 14.38 11.0525 15.37 11.2025 16.81L11.7725 22H16.2725L15.7025 16.21ZM8.6225 4.75C10.6925 4.75 11.5925 6.1 11.5925 7.6C11.5925 9.13 10.6925 10.51 8.6225 10.51H4.5425V4.75H8.6225ZM26.6109 22V0.999999H22.0809V22H26.6109ZM39.5684 22C45.3584 22 50.4284 18.64 50.4284 11.5C50.4284 4.33 45.3584 0.999999 39.5684 0.999999H32.5184V22H39.5684ZM37.0184 4.87H39.1184C42.5684 4.87 45.8684 6.55 45.8684 11.5C45.8684 16.45 42.5684 18.1 39.1184 18.1H37.0184V4.87ZM70.017 22V18.1H59.907V13.21H67.707V9.31H59.907V4.87H69.687V0.999999H55.407V22H70.017ZM93.0633 22V13.3L100.233 0.999999H95.4033L90.8133 9.1L86.2233 0.999999H81.3933L88.5333 13.3V22H93.0633ZM112.291 22.24C118.441 22.24 123.001 17.68 123.001 11.5C123.001 5.32 118.441 0.76 112.291 0.76C106.111 0.76 101.551 5.32 101.551 11.5C101.551 17.68 106.111 22.24 112.291 22.24ZM112.261 18.34C108.661 18.34 106.081 15.43 106.081 11.5C106.081 7.57 108.661 4.63 112.261 4.63C115.861 4.63 118.471 7.57 118.471 11.5C118.471 15.43 115.861 18.34 112.261 18.34ZM135.898 22.24C140.878 22.24 144.268 19.57 144.268 14.26V0.999999H140.068V14.26C140.068 17.02 138.328 18.31 135.898 18.31C133.468 18.31 131.758 17.02 131.758 14.26V0.999999H127.528V14.26C127.528 19.57 130.948 22.24 135.898 22.24ZM165.443 16.21C165.263 14.38 164.393 12.91 163.043 11.98C164.663 11.14 165.683 9.7 165.683 7.6C165.683 3.76 163.073 0.999999 158.603 0.999999H149.753V22H154.283V14.38H158.363C159.773 14.38 160.793 15.37 160.943 16.81L161.513 22H166.013L165.443 16.21ZM158.363 4.75C160.433 4.75 161.333 6.1 161.333 7.6C161.333 9.13 160.433 10.51 158.363 10.51H154.283V4.75H158.363ZM189.749 22.24C195.119 22.24 198.989 19.21 199.379 14.71H194.879C194.519 16.87 192.449 18.34 189.749 18.34C186.359 18.34 183.749 16 183.749 11.5C183.749 7 186.359 4.63 189.749 4.63C192.389 4.63 194.459 6.1 194.759 8.29H199.469C198.899 3.76 195.029 0.76 189.749 0.76C184.139 0.76 179.219 4.42 179.219 11.5C179.219 18.58 184.049 22.24 189.749 22.24ZM208.681 22V0.999999H204.151V22H208.681ZM223.589 22V4.87H229.799V0.999999H212.879V4.87H219.089V22H223.589ZM243.741 22V13.3L250.911 0.999999H246.081L241.491 9.1L236.901 0.999999H232.071L239.211 13.3V22H243.741Z" fill="white"/>
</svg>
